<svg width="512" height="512" viewBox="0 0 512 512" fill="none" xmlns="http://www.w3.org/2000/svg">
<g clip-path="url(#clip0_77_108)">
<path d="M355.981 496.222H154.552C150.101 496.222 145.831 494.484 142.683 491.39C139.535 488.295 137.767 484.098 137.767 479.722C137.767 475.346 139.535 471.149 142.683 468.055C145.831 464.961 150.101 463.222 154.552 463.222H355.981C360.433 463.222 364.702 464.961 367.85 468.055C370.998 471.149 372.767 475.346 372.767 479.722C372.767 484.098 370.998 488.295 367.85 491.39C364.702 494.484 360.433 496.222 355.981 496.222Z" fill="#FBC02D"/>
<path d="M237.767 93.2222H271.767V471.222H237.767V93.2222Z" fill="#FBC02D"/>
<path d="M422.948 60.2222H86.5848C82.1244 60.2222 77.8466 58.4312 74.6926 55.243C71.5386 52.0549 69.7667 47.7309 69.7667 43.2222C69.7667 38.7135 71.5386 34.3895 74.6926 31.2014C77.8466 28.0133 82.1244 26.2222 86.5848 26.2222H422.948C427.409 26.2222 431.687 28.0133 434.841 31.2014C437.995 34.3895 439.767 38.7135 439.767 43.2222C439.767 47.7309 437.995 52.0549 434.841 55.243C431.687 58.4312 427.409 60.2222 422.948 60.2222Z" fill="#FBC02D"/>
<path d="M405.435 359.221C386.511 359.294 367.832 354.905 350.888 346.406C333.944 337.907 319.204 325.532 307.845 310.269L297.767 296.718L324.474 276.222L334.552 289.773C342.821 300.791 353.51 309.726 365.779 315.879C378.048 322.031 391.564 325.233 405.267 325.233C418.969 325.233 432.485 322.031 444.754 315.879C457.023 309.726 467.712 300.791 475.982 289.773L486.06 276.222L512.767 296.718L502.689 310.269C491.363 325.486 476.677 337.833 459.796 346.33C442.914 354.827 424.302 359.241 405.435 359.221Z" fill="#FBC02D"/>
<path d="M465.249 265.195C462.65 265.184 460.11 264.417 457.938 262.986C455.767 261.555 454.057 259.522 453.018 257.135L405.265 146.81L357.513 257.135C356.091 260.408 353.43 262.981 350.115 264.288C346.8 265.595 343.103 265.528 339.837 264.103C336.57 262.678 334.003 260.011 332.699 256.689C331.395 253.366 331.461 249.661 332.883 246.388L393.034 107.685C394.213 105.434 395.983 103.548 398.154 102.233C400.324 100.918 402.813 100.222 405.349 100.222C407.886 100.222 410.374 100.918 412.545 102.233C414.715 103.548 416.486 105.434 417.664 107.685L477.648 246.388C478.536 248.428 478.905 250.657 478.72 252.876C478.536 255.094 477.805 257.232 476.592 259.096C475.379 260.961 473.723 262.495 471.772 263.559C469.821 264.624 467.637 265.186 465.416 265.195H465.249Z" fill="#FBC02D"/>
<path d="M115.351 359.222C96.4402 359.268 77.7799 354.858 60.8542 346.342C43.9284 337.827 29.2042 325.44 17.8527 310.169L7.76666 296.59L34.3265 276.222L44.4125 289.801C52.6885 300.841 63.3856 309.795 75.6643 315.96C87.9431 322.125 101.47 325.333 115.183 325.333C128.896 325.333 142.422 322.125 154.701 315.96C166.98 309.795 177.677 300.841 185.953 289.801L196.039 276.222L222.767 296.76L212.681 310.339C201.329 325.556 186.624 337.896 169.73 346.38C152.837 354.865 134.219 359.261 115.351 359.222Z" fill="#FBC02D"/>
<path d="M175.233 265.195C172.631 265.184 170.089 264.417 167.915 262.986C165.74 261.555 164.029 259.522 162.988 257.135L115.182 146.81L67.5426 257.135C66.119 260.408 63.4548 262.981 60.136 264.288C56.8172 265.595 53.1157 265.528 49.8458 264.103C46.5759 262.678 44.0055 260.011 42.7 256.689C41.3945 253.366 41.4609 249.661 42.8845 246.388L102.936 107.685C104.116 105.434 105.888 103.548 108.062 102.233C110.235 100.918 112.726 100.222 115.265 100.222C117.805 100.222 120.296 100.918 122.469 102.233C124.642 103.548 126.415 105.434 127.594 107.685L187.646 246.388C188.536 248.428 188.905 250.657 188.72 252.876C188.536 255.094 187.804 257.232 186.589 259.096C185.375 260.961 183.717 262.495 181.764 263.559C179.811 264.624 177.625 265.186 175.401 265.195H175.233Z" fill="#FBC02D"/>
</g>
<defs>
<clipPath id="clip0_77_108">
<rect width="512" height="512" fill="white"/>
</clipPath>
</defs>
</svg>
