<svg width="512" height="512" viewBox="0 0 512 512" fill="none" xmlns="http://www.w3.org/2000/svg">
<g clip-path="url(#clip0_77_100)">
<path d="M192 0C151.253 0 118.251 29.5893 109.995 68.0107C60.2453 76.8853 21.3333 118.4 21.3333 170.667C21.3333 175.915 21.9093 180.587 22.6773 185.344C8.91734 205.568 0 229.397 0 256C0 294.336 19.0933 326.592 45.9947 349.995C44.0747 357.589 42.6667 365.163 42.6667 373.333C42.6667 426.091 85.9093 469.333 138.667 469.333H140.011C152.427 493.419 173.931 512 202.667 512C212.621 511.977 222.47 509.959 231.63 506.064C240.791 502.169 249.078 496.476 256 489.323C262.922 496.476 271.209 502.169 280.37 506.064C289.53 509.959 299.379 511.977 309.333 512C338.091 512 359.573 493.419 372.011 469.333H373.333C423.424 469.333 464.491 430.336 468.672 381.333H469.333C469.333 379.989 468.757 378.667 468.672 377.323C468.757 376 469.333 374.656 469.333 373.333C469.333 365.419 466.496 358.656 464.661 351.339C492.331 327.829 512 295.019 512 256C512 229.419 503.083 205.589 489.323 185.323C490.091 180.587 490.667 175.936 490.667 170.667C490.667 118.4 451.755 76.9067 402.005 67.9893C393.749 29.6107 360.747 0 320 0C294.4 0 271.659 11.9253 256 29.9947C240.341 11.9467 217.6 0 192 0ZM192 42.6667C215.829 42.6667 234.667 61.504 234.667 85.3333V128C234.667 163.584 206.251 192 170.667 192V234.667C194.837 234.667 216.747 226.347 234.667 212.672V437.333C234.667 455.253 220.587 469.333 202.667 469.333C195.203 469.438 187.946 466.876 182.202 462.11C176.458 457.343 172.602 450.683 171.328 443.328L167.339 422.677L146.667 426.005C139.071 427.205 131.305 426.739 123.907 424.641C116.509 422.542 109.656 418.86 103.822 413.85C97.9884 408.84 93.3133 402.621 90.1208 395.625C86.9284 388.629 85.2948 381.023 85.3333 373.333C85.3333 366.741 86.4 360.576 88.6613 354.667C88.832 354.176 89.1733 353.813 89.3227 353.323C92.596 345.191 97.848 338.005 104.602 332.416C111.356 326.828 119.399 323.015 128 321.323L119.339 279.339C97.5657 283.639 77.9863 295.429 64 312.661C50.1292 297.061 42.5291 276.875 42.6667 256C42.6302 236.816 49.2246 218.208 61.3333 203.328L68.0107 195.328L66.0053 184.661C64.7965 180.09 64.1235 175.394 64 170.667C64 135.083 92.416 106.667 128 106.667H149.333V85.3333C149.333 61.504 168.171 42.6667 192 42.6667ZM320 42.6667C343.829 42.6667 362.667 61.504 362.667 85.3333V106.667H384C419.584 106.667 448 135.083 448 170.667C448 175.253 447.147 179.669 445.995 184.661L444.011 195.328L450.667 203.328C462.775 218.208 469.37 236.816 469.333 256C469.333 281.6 458.411 304.427 440.661 320C426.091 307.093 407.509 298.667 386.667 298.667C366.507 298.667 348.331 305.835 333.995 317.995L361.344 350.677C368.382 344.611 377.375 341.293 386.667 341.333C407.253 341.333 423.659 356.757 426.005 376.661C424.256 404.757 401.835 426.667 373.333 426.667C371.413 426.667 369.067 426.581 365.333 426.005L344.661 422.656L340.672 443.349C339.394 450.701 335.536 457.355 329.792 462.118C324.048 466.88 316.794 469.439 309.333 469.333C291.413 469.333 277.333 455.253 277.333 437.333V212.672C295.649 226.876 318.155 234.61 341.333 234.667V192C305.749 192 277.333 163.584 277.333 128V85.3333C277.333 61.504 296.171 42.6667 320 42.6667Z" fill="#FBC02D"/>
</g>
<defs>
<clipPath id="clip0_77_100">
<rect width="512" height="512" fill="white"/>
</clipPath>
</defs>
</svg>
