<svg width="512" height="512" viewBox="0 0 512 512" fill="none" xmlns="http://www.w3.org/2000/svg">
<g clip-path="url(#clip0_77_95)">
<path d="M310.858 93.0349C310.809 93.0163 310.761 92.998 310.712 92.9801C310.821 101.702 312.101 110.425 314.515 118.91L318.172 131.509L297.747 147.783L257.481 179.893C247.949 187.596 241.367 198.352 238.848 210.346C236.33 222.34 238.028 234.836 243.657 245.722L224.018 265.361C221.081 268.368 219.436 272.404 219.436 276.607C219.436 280.811 221.081 284.847 224.018 287.853C225.488 289.345 227.24 290.53 229.172 291.339C231.105 292.148 233.178 292.565 235.273 292.565C237.368 292.565 239.442 292.148 241.374 291.339C243.306 290.53 245.058 289.345 246.528 287.853L266.149 268.287C277.035 273.974 289.559 275.697 301.576 273.161C313.593 270.626 324.354 263.99 332.015 254.39L380.765 193.278L394.461 197.265C402.43 199.593 410.666 200.884 418.964 201.105C432.374 201.423 445.703 198.943 458.101 193.824C470.5 188.705 481.695 181.058 490.974 171.372L507.066 154.805C516.099 145.662 512.131 130.009 500.026 126.462L438.859 109.712L438.823 109.748C439.006 105.554 438.437 101.362 437.141 97.3687L452.428 82.0634C453.922 80.5962 455.108 78.8461 455.918 76.9152C456.728 74.9843 457.145 72.9114 457.145 70.8175C457.145 68.7237 456.728 66.6508 455.918 64.7199C455.108 62.789 453.922 61.0389 452.428 59.5717C450.96 58.0778 449.21 56.8912 447.279 56.0812C445.349 55.2712 443.276 54.854 441.182 54.854C439.088 54.854 437.015 55.2712 435.084 56.0812C433.153 56.8912 431.403 58.0778 429.936 59.5717L414.631 74.877C410.638 73.5764 406.446 73.0005 402.251 73.1764L402.288 73.1399L384.148 12.1197C383.365 9.31887 381.859 6.77334 379.781 4.73899C377.703 2.70463 375.126 1.25314 372.309 0.530389C369.492 -0.192361 366.535 -0.160901 363.734 0.621612C360.933 1.40412 358.388 2.91011 356.353 4.98822L340.079 21.2627C330.641 30.653 323.19 41.8469 318.17 54.1775C313.15 66.5081 310.663 79.723 310.858 93.0349Z" fill="#FBC02D"/>
<path d="M372.774 232.703L387.494 214.271L389.414 214.819C401.392 218.326 413.865 219.84 426.334 219.299C434.652 242.831 438.889 267.612 438.859 292.571C438.859 413.752 340.609 512.002 219.428 512.002C98.2475 512.002 -0.00274658 413.752 -0.00274658 292.571C-0.00274658 171.39 98.2475 73.1399 219.428 73.1399C244.387 73.1177 269.166 77.3538 292.7 85.6657C292.046 98.5646 293.522 111.483 297.07 123.902L297.308 124.779L279.205 139.189C244.004 125.469 205.154 124.278 169.179 135.817C133.204 147.355 102.294 170.92 81.6394 202.554C60.9848 234.188 51.8433 271.966 55.7498 309.544C59.6563 347.122 76.3729 382.211 103.093 408.921C129.813 435.63 164.909 452.333 202.488 456.225C240.067 460.116 277.841 450.96 309.468 430.293C341.094 409.626 364.647 378.707 376.171 342.727C387.695 306.748 386.508 267.899 372.774 232.703Z" fill="#FBC02D"/>
<path d="M274.25 290.633C283.452 292.824 292.999 293.161 302.333 291.622C311.667 290.084 320.601 286.702 328.614 281.673C330.861 304.194 326.089 326.86 314.95 346.563C303.812 366.266 286.852 382.042 266.396 391.729C245.94 401.415 222.989 404.539 200.688 400.67C178.388 396.802 157.829 386.131 141.831 370.121C125.833 354.11 115.177 333.544 111.325 311.241C107.474 288.937 110.614 265.988 120.316 245.539C130.018 225.091 145.806 208.143 165.518 197.019C185.229 185.895 207.898 181.139 230.418 183.404C220.339 199.612 217.103 219.158 221.422 237.75C210.411 237.349 199.536 240.273 190.211 246.14C180.886 252.008 173.543 260.547 169.14 270.647C164.737 280.746 163.476 291.937 165.523 302.763C167.57 313.588 172.829 323.547 180.616 331.341C188.402 339.136 198.355 344.405 209.179 346.463C220.002 348.521 231.195 347.273 241.299 342.88C251.402 338.487 259.949 331.154 265.827 321.835C271.704 312.516 274.639 301.643 274.25 290.633Z" fill="#FBC02D"/>
</g>
<defs>
<clipPath id="clip0_77_95">
<rect width="512" height="512" fill="white"/>
</clipPath>
</defs>
</svg>
