<?xml version="1.0" encoding="utf-8"?>
<!-- Generator: Adobe Illustrator 27.8.0, SVG Export Plug-In . SVG Version: 6.00 Build 0)  -->
<svg version="1.1" id="Layer_1" xmlns="http://www.w3.org/2000/svg" xmlns:xlink="http://www.w3.org/1999/xlink" x="0px" y="0px"
	 viewBox="0 0 1024 1024" style="enable-background:new 0 0 1024 1024;" xml:space="preserve">
<style type="text/css">
	.st0{fill:#08161A;}
	.st1{fill:#F9AA19;}
</style>
<g>
	<path class="st0" d="M485.45,916.28c60.28,0.67,118.9-11.95,174.27-39.07c5.19-2.54,10.18-5.5,15.26-8.27
		c12.47-6.78,25.57-4.05,31.17,6.5c5.8,10.93,1.49,23.6-11.1,30.2c-33.74,17.68-68.69,32.33-106.01,40.74
		c-37.54,8.46-75.5,13.98-114.04,12.75c-96.12-3.08-183.99-30.79-261.35-89.15C124.5,802.73,68.1,714.04,42.59,605.84
		c-10.95-46.44-13.18-93.9-8.75-141.53c7.48-80.58,34.97-153.68,82.96-218.8c46.97-63.73,106.41-112.55,179.07-144.21
		c38.64-16.84,79.15-28.12,121.26-33.22c22.09-2.68,44.16-3.93,66.35-3.14c11.9,0.42,19.93,8.46,20.41,19.4
		c0.44,10.13-7.62,19.91-18.76,21.24c-9.51,1.13-19.2,0.73-28.79,1.32c-106.83,6.62-198.59,46.27-273.03,124.23
		c-55.13,57.74-89.27,126.1-103.86,204.29c-6.99,37.48-7.06,75.36-3.8,113.29c6.24,72.57,31.73,138.17,73.96,196.89
		c60.59,84.25,141.61,138.9,243.29,161.71C422.88,914.02,453.4,916.86,485.45,916.28z"/>
	<path class="st0" d="M104.31,506.78c0.26-91.55,30.95-172.15,90.31-241.32c53.45-62.27,121.49-101.05,201.68-118.56
		c27.15-5.93,54.51-9.75,82.34-9.51c10.74,0.09,18.25,5.89,21.42,15.83c2.55,7.97-0.62,17.34-7.77,22.55
		c-5.45,3.97-11.84,4.46-18.29,4.49c-57.94,0.32-112.52,14.21-162.72,42.97C227.95,271,173.39,342.44,153.94,435.89
		c-25.45,122.29,7.05,230.07,97.82,317.4c48.82,46.97,108.67,74.22,175.41,85.49c73.43,12.4,143.3,1.05,209.45-33.24
		c5.35-2.77,10.63-5.75,17.16-5.42c8.51,0.43,15.78,4.84,18.8,12.34c3.32,8.23,1.73,15.54-4.17,22.07
		c-2.92,3.24-6.67,5.3-10.43,7.23c-39.16,20.05-80.2,34.94-123.96,40.13c-113.38,13.44-214.52-15.77-301.28-90.65
		c-63.86-55.11-103.28-125.16-121.22-207.29C106,558.65,103.28,532.9,104.31,506.78z"/>
	<path class="st0" d="M176.46,510.45c-0.54-71.74,22.39-135.63,68.29-190.65c44.73-53.61,102.01-87.51,170.41-102.16
		c19.3-4.13,38.81-6.88,58.65-6.49c13.26,0.26,22.42,8.45,23.09,20.35c0.58,10.31-8.8,21.54-21.5,21.9
		c-41.91,1.19-81.81,10.29-119.33,29.69c-52.33,27.05-90.47,67.44-114.83,120.79c-19.05,41.71-25.27,85.49-21.4,131.28
		c9.42,111.24,92.63,206.66,210.61,230.78c29.9,6.11,60.4,5.24,90.84,1.09c29.21-3.98,56.54-13.1,82.67-26.32
		c5.6-2.83,10.49-7.03,17-8.03c11.26-1.72,19.84,2.46,23.64,11.76c4.16,10.18,1.13,19.64-8.53,26.09
		c-16.63,11.12-35.24,18.1-53.9,24.7c-43.07,15.23-87.55,19.34-132.86,14.87C328.29,798.15,212.3,709.76,182.01,568.61
		C177.92,549.57,175.83,530.2,176.46,510.45z"/>
	<path class="st0" d="M479.1,739.46c-65.09-1.39-120.07-26.14-165.59-72.33c-33.01-33.5-53.4-73.81-60.95-120.02
		c-16.11-98.52,32.75-192.86,122.18-237.59c30.81-15.41,63.32-23.89,97.95-23.26c3.96,0.07,7.95-0.26,11.81,1.32
		c9.39,3.84,15.16,13.65,13.35,23.02c-1.94,10.03-11.41,17.98-22.67,17.69c-21.26-0.56-41.86,2.56-61.78,9.82
		c-52.74,19.22-91.2,54.96-110.42,107.07C261.61,557.3,329.8,662.8,432.82,691.07c50.65,13.9,98.33,5.19,143.47-20.06
		c12.96-7.25,25.39-3.7,30.43,3.08c7.87,10.56,4.63,25.99-7.75,32.95c-25.74,14.46-53.06,24.64-82.37,29.15
		C504.18,738.11,491.76,739.69,479.1,739.46z"/>
	<path class="st1" d="M825.87,444.74c0.34,18.14-8.34,26.88-23.51,23.52c-7.35-1.63-12.93-8.22-13.94-16.63
		c-9.42-77.97-45.62-142.64-100.83-196.71c-39.59-38.77-87.15-64.52-141.96-75.78c-12.61-2.59-19.1-9.66-19.07-20.06
		c0.03-10.96,7.59-18.96,18.54-18.6c17.27,0.57,33.5,6.23,49.46,12.06c82.95,30.29,143.57,86.72,187.1,162.32
		c21.12,36.68,36.15,75.89,42.96,117.93C825.26,436.74,825.46,440.76,825.87,444.74z"/>
	<path class="st1" d="M759.27,481.4c0.42,16.53-7.88,25.93-20.95,24.07c-8.93-1.27-14.95-7.71-15.85-17.3
		c-3.39-36.3-11.48-71.34-27.49-104.31c-32.76-67.45-84.96-111.44-157.63-130.81c-12.29-3.27-18.83-11.19-17.94-21.04
		c1.17-12.88,12.68-20.2,26.38-16.56c71.27,18.95,126.46,59.57,165.59,122.23c25.93,41.51,42.75,86.11,47.86,134.92
		C759.53,475.49,759.27,478.46,759.27,481.4z"/>
	<path class="st1" d="M638.36,410.59c-7.63,0.66-13.01-3.46-16.84-9.71c-21.41-34.95-51.45-59.2-89.84-73.41
		c-11.29-4.18-16.24-15.39-12.22-25.94c3.88-10.16,14.52-14.67,25.86-10.16c45.05,17.89,82.27,45.61,108.3,87.19
		c4.41,7.05,5.71,14.54,1.79,21.92C652.02,406.87,646.57,411.13,638.36,410.59z"/>
	<path class="st1" d="M829.41,167.78c13.38,0.1,23.51,10.54,23.32,24.03c-0.18,12.71-11.05,22.99-23.97,22.66
		c-12.77-0.33-22.86-10.93-22.79-23.95C806.03,177.25,815.9,167.68,829.41,167.78z"/>
	<path class="st1" d="M903.95,257.62c13.18-0.03,23.8,10.07,23.92,22.75c0.12,12.29-11.15,23.2-23.81,23.05
		c-12.48-0.14-22.58-10.45-22.63-23.1C881.37,267.24,890.89,257.65,903.95,257.62z"/>
	<path class="st1" d="M894.8,479.45c-12.96-0.02-22.94-9.73-22.98-22.35c-0.05-13.18,9.97-23.26,23.04-23.2
		c12.95,0.06,23.27,10.41,23.26,23.31C918.11,469.44,907.59,479.47,894.8,479.45z"/>
	<path class="st1" d="M851.27,544.42c-0.25,11.67-9.95,21.03-21.65,20.89c-10.81-0.13-20.58-10.42-20.39-21.46
		c0.2-11.38,10.38-21.43,21.58-21.3C842.51,522.67,851.53,532.32,851.27,544.42z"/>
	<path class="st1" d="M801.12,647.3c0.09-11.99,8.72-20.64,20.57-20.62c11.95,0.02,21.64,9.62,21.33,21.14
		c-0.29,10.68-10.81,20.78-21.55,20.69C810.09,668.42,801.03,658.97,801.12,647.3z"/>
	<path class="st1" d="M939.18,381.61c0.15-10.71,9.5-19.77,20.19-19.57c10.64,0.21,20,9.7,19.86,20.15
		c-0.14,10.04-10.51,20.04-20.54,19.79C947.99,401.72,939.03,392.37,939.18,381.61z"/>
	<path class="st1" d="M820.47,257.67c11.35,0.05,19.51,8.3,19.43,19.66c-0.08,10.56-8.63,18.94-19.39,19
		c-11.03,0.06-19.54-8.62-19.38-19.79C801.28,265.69,809.54,257.63,820.47,257.67z"/>
	<path class="st1" d="M753.16,586.39c0.02,10.09-7.94,18.08-18.13,18.19c-11.11,0.12-18.92-7.3-18.95-17.99
		c-0.03-10.15,7.83-18.25,17.93-18.51C744.23,567.82,753.14,576.34,753.16,586.39z"/>
	<path class="st1" d="M678.34,652.33c10.46-0.01,18.49,7.62,18.66,17.73c0.17,10.21-7.69,18.22-18,18.36
		c-10.95,0.15-19.16-7.66-19.04-18.12C660.07,660.04,667.95,652.34,678.34,652.33z"/>
	<path class="st1" d="M920.65,639.87c-9.94-0.1-17.81-7.75-18.02-17.53c-0.21-10.05,7.92-18.22,18.11-18.21
		c10.43,0.01,18.41,7.78,18.37,17.91C939.08,632.17,931.01,639.97,920.65,639.87z"/>
	<path class="st1" d="M849.22,369.99c0.23-9.94,8.42-17.88,17.99-17.43c9.88,0.46,17.95,9.24,17.55,19.1
		c-0.38,9.49-8.74,16.84-18.82,16.56C855.6,387.93,848.98,380.71,849.22,369.99z"/>
	<path class="st1" d="M554,93.99c-0.06-9.9,7.74-17.69,17.67-17.64c9.85,0.05,17.66,8.01,17.57,17.91
		c-0.09,9.24-8.02,17.15-17.41,17.35C562.13,111.82,554.07,103.84,554,93.99z"/>
	<path class="st1" d="M727,120.44c-0.13-9.54,7.38-17.79,16.56-18.19c9.24-0.4,17.55,7.45,17.78,16.81
		c0.26,10.29-6.99,18.18-16.91,18.38C734.83,137.65,727.13,130.14,727,120.44z"/>
	<path class="st1" d="M723.9,798.84c-9.54-0.07-17.42-8.06-17.1-17.34c0.32-9.13,8.03-16.55,17.23-16.57
		c9.6-0.02,17.67,7.85,17.54,17.1C741.42,791.48,733.62,798.9,723.9,798.84z"/>
	<path class="st1" d="M658.95,140.87c-9.91-0.01-16.7-6.59-16.82-16.3c-0.12-9.56,7.72-17.73,16.89-17.6
		c9.48,0.14,17.34,8.2,17.09,17.56C675.88,133.72,668.35,140.88,658.95,140.87z"/>
	<path class="st1" d="M877,735.47c0.1,9.02-6.34,15.4-15.5,15.38c-8.66-0.02-15.28-6.36-15.37-14.73
		c-0.1-8.94,6.47-15.91,15.18-16.13C869.95,719.79,876.91,726.64,877,735.47z"/>
	<path class="st1" d="M744.69,178.84c8.53,0.3,15.2,7.29,14.86,15.55c-0.36,8.69-7.78,15.65-16.31,15.31
		c-8.55-0.34-14.98-7.72-14.59-16.75C729.01,184.32,735.61,178.52,744.69,178.84z"/>
	<path class="st1" d="M977.26,512.99c-8.1,0.22-15.27-6.7-15.52-14.97c-0.25-8.48,6.23-15.42,14.59-15.63
		c8.93-0.23,15.93,6.42,15.96,15.14C992.32,505.87,985.61,512.77,977.26,512.99z"/>
	<path class="st1" d="M804.5,822.85c-0.13,7.86-7.12,14.49-15.2,14.41c-8.27-0.08-15.45-7.45-15.12-15.51
		c0.3-7.43,7.96-14.69,15.47-14.66C797.75,807.13,804.64,814.43,804.5,822.85z"/>
	<path class="st1" d="M746.48,709.86c-0.06-8.6,6.44-15.46,14.73-15.54c8.15-0.07,14.73,6.9,14.67,15.55
		c-0.05,8.49-6.1,14.87-14.24,15.03C753.23,725.07,746.54,718.44,746.48,709.86z"/>
	<path class="st1" d="M923.7,545.87c-0.13,7.81-6.07,13.74-13.73,13.69c-7.89-0.04-14.16-6.35-14.17-14.26
		c-0.01-7.94,6.36-14.32,14.17-14.19C917.61,531.25,923.84,537.95,923.7,545.87z"/>
	<g>
		<path d="M394.01,530.02l0.16,0.49c0.22,12.74-3.03,22.28-9.76,28.63c-6.73,6.34-16.32,9.51-28.79,9.51
			c-12.8,0-22.95-3.77-30.46-11.31c-7.51-7.54-11.27-18.25-11.27-32.14v-35.28c0-13.83,3.63-24.56,10.9-32.18
			c7.27-7.62,17.08-11.43,29.44-11.43c13.01,0,23.01,3.16,29.97,9.47c6.97,6.32,10.34,15.87,10.13,28.67l-0.16,0.49h-22.38
			c0-7.62-1.35-12.96-4.04-16.01c-2.7-3.05-7.2-4.57-13.52-4.57c-5.77,0-10.1,2.08-12.99,6.25c-2.89,4.17-4.33,10.55-4.33,19.15
			v35.45c0,8.66,1.55,15.07,4.66,19.23c3.1,4.16,7.79,6.25,14.05,6.25c5.72,0,9.83-1.51,12.33-4.53c2.5-3.02,3.76-8.4,3.76-16.13
			H394.01z"/>
		<path d="M428.7,566.94h-22.95V448.02h22.95V566.94z"/>
		<path d="M503.58,514.42h-36.35v34.55h43.53v17.97H444.2V448.02h66.4v18.05h-43.37v30.38h36.35V514.42z"/>
		<path d="M558.21,490.09h0.49l16.91-42.06h26.71l-29.57,58.97l31.53,59.95h-27.85l-17.48-42.96h-0.49l-17.4,42.96h-26.79
			l30.3-59.95l-29.65-58.97h26.63L558.21,490.09z"/>
		<path d="M669.59,514.42h-36.35v34.55h43.53v17.97h-66.57V448.02h66.4v18.05h-43.37v30.38h36.35V514.42z"/>
	</g>
</g>
</svg>
