<svg width="526" height="526" viewBox="0 0 526 526" fill="none" xmlns="http://www.w3.org/2000/svg">
<path d="M295.835 298.978C315.819 280.729 317.226 249.736 298.978 229.753C280.729 209.769 249.736 208.362 229.753 226.61C209.769 244.858 208.362 275.852 226.61 295.835C234.058 303.992 233.484 316.642 225.328 324.091C217.171 331.539 204.521 330.965 197.072 322.808C163.928 286.511 166.483 230.217 202.78 197.072C239.077 163.928 295.371 166.483 328.515 202.78C361.66 239.077 359.105 295.371 322.808 328.515C314.651 335.964 302.001 335.39 294.553 327.233C287.105 319.076 287.679 306.426 295.835 298.978Z" fill="#FBC02D"/>
<path d="M369.443 201.516C335.6 142.615 260.416 122.302 201.516 156.145C142.615 189.988 122.302 265.171 156.145 324.072C189.988 382.973 265.171 403.286 324.072 369.443C333.649 363.94 345.874 367.243 351.377 376.82C356.88 386.398 353.577 398.623 344 404.126C265.945 448.974 166.311 422.055 121.462 344C76.6136 265.945 103.533 166.311 181.588 121.462C259.643 76.6136 359.277 103.533 404.125 181.588C409.628 191.165 406.325 203.39 396.748 208.893C387.171 214.396 374.946 211.093 369.443 201.516Z" fill="#FBC02D"/>
<path d="M238.17 456.233C345.003 469.832 442.634 394.251 456.233 287.418C469.832 180.585 394.251 82.9544 287.418 69.3549C180.585 55.7554 82.9544 131.336 69.3549 238.17C67.9601 249.127 57.9468 256.879 46.9895 255.484C36.0322 254.089 28.2803 244.076 29.6751 233.119C46.0642 104.371 163.721 13.286 292.469 29.6751C421.217 46.0642 512.302 163.721 495.913 292.469C479.524 421.217 361.867 512.302 233.119 495.913C222.162 494.518 214.41 484.505 215.804 473.547C217.199 462.59 227.213 454.838 238.17 456.233Z" fill="#FBC02D"/>
</svg>
