<svg width="512" height="512" viewBox="0 0 512 512" fill="none" xmlns="http://www.w3.org/2000/svg">
<path d="M480 32V480H32V32H480ZM64 64V320H101.5L128.75 292.75C131.917 289.583 135.667 288 140 288C144.333 288 148.083 289.583 151.25 292.75L195.5 336.75L256.5 100C257.333 96.5 259.167 93.6667 262 91.5C264.833 89.3333 268.167 88.1667 272 88C275.833 88 279.167 89.0833 282 91.25C284.833 93.4167 286.667 96.4167 287.5 100.25L313 204.5H352C355.667 204.5 358.917 205.583 361.75 207.75C364.583 209.917 366.5 212.833 367.5 216.5L385.5 288H448V64H64ZM448 448V320H373C369.167 320 365.833 318.917 363 316.75C360.167 314.583 358.333 311.583 357.5 307.75L339.5 236.5H300.5C296.667 236.5 293.333 235.417 290.5 233.25C287.667 231.083 285.833 228.083 285 224.25L271.5 169.75L219.5 372C218.667 375.5 216.833 378.333 214 380.5C211.167 382.667 207.833 383.833 204 384C199.667 384 195.917 382.417 192.75 379.25L140 326.5L119.25 347.25C116.083 350.417 112.333 352 108 352H64V448H448Z" fill="#FBC02D"/>
</svg>
