<svg width="512" height="512" viewBox="0 0 512 512" fill="none" xmlns="http://www.w3.org/2000/svg">
<g clip-path="url(#clip0_77_85)">
<path d="M492 273.75C498.333 279.75 503.25 286.75 506.75 294.75C510.25 302.75 512 311.167 512 320C512 328.833 510.333 337.083 507 344.75C503.667 352.417 499.083 359.25 493.25 365.25C487.417 371.25 480.667 375.833 473 379C465.333 382.167 457 383.833 448 384C444.5 384 441 383.75 437.5 383.25L319.75 442C319.917 443 320 444 320 445C320 446 320 447 320 448C320 456.833 318.333 465.083 315 472.75C311.667 480.417 307.083 487.25 301.25 493.25C295.417 499.25 288.667 503.833 281 507C273.333 510.167 265 511.833 256 512C247.333 512 239.167 510.333 231.5 507C223.833 503.667 217 499.167 211 493.5C205 487.833 200.333 481.083 197 473.25C193.667 465.417 191.917 457.25 191.75 448.75V445.5C191.75 444.5 191.917 443.333 192.25 442L74.5 383.25C71 383.75 67.5 384 64 384C55.1667 384 46.9167 382.333 39.25 379C31.5833 375.667 24.75 371.083 18.75 365.25C12.75 359.417 8.16667 352.667 5 345C1.83333 337.333 0.166667 329 0 320C0 308.167 3 297.25 9 287.25C15 277.25 23.25 269.417 33.75 263.75L77.5 103.25C68.5 91.75 64 78.6667 64 64C64 55.1667 65.6667 46.9167 69 39.25C72.3333 31.5833 76.9167 24.75 82.75 18.75C88.5833 12.75 95.3333 8.16667 103 5C110.667 1.83333 119 0.166667 128 0C139.5 0 150.167 2.83333 160 8.5C169.833 14.1667 177.667 22 183.5 32H328.5C334.333 22 342.167 14.1667 352 8.5C361.833 2.83333 372.5 0 384 0C392.833 0 401.083 1.66667 408.75 5C416.417 8.33333 423.25 12.9167 429.25 18.75C435.25 24.5833 439.833 31.3333 443 39C446.167 46.6667 447.833 55 448 64C448 71 446.917 77.75 444.75 84.25C442.583 90.75 439.333 96.8333 435 102.5L492 273.75ZM384 320C384 310.833 385.833 302.083 389.5 293.75C393.167 285.417 398.5 278.25 405.5 272.25L293.25 188L127.5 312.25L128 320H384ZM128 128C120.167 128 112.5 126.583 105 123.75L69 256.25C78.1667 257.083 86.75 259.667 94.75 264C102.75 268.333 109.583 274.167 115.25 281.5L266.75 168L179.25 102.5C173.083 110.5 165.583 116.75 156.75 121.25C147.917 125.75 138.333 128 128 128ZM438.25 256.75C439.583 256.417 441.083 256.25 442.75 256.25C444.417 256.25 446 256.167 447.5 256H450C450.833 256 451.667 256.083 452.5 256.25L408.25 123.25C400.083 126.417 392 128 384 128C380.667 128 377.417 127.75 374.25 127.25L320 168L438.25 256.75ZM384 32C379.5 32 375.333 32.8333 371.5 34.5C367.667 36.1667 364.333 38.4167 361.5 41.25C358.667 44.0833 356.333 47.5 354.5 51.5C352.667 55.5 351.833 59.6667 352 64C352 68.5 352.833 72.6667 354.5 76.5C356.167 80.3333 358.417 83.6667 361.25 86.5C364.083 89.3333 367.5 91.6667 371.5 93.5C375.5 95.3333 379.667 96.1667 384 96C388.5 96 392.667 95.1667 396.5 93.5C400.333 91.8333 403.667 89.5833 406.5 86.75C409.333 83.9167 411.667 80.5 413.5 76.5C415.333 72.5 416.167 68.3333 416 64C416 59.5 415.167 55.3333 413.5 51.5C411.833 47.6667 409.583 44.3333 406.75 41.5C403.917 38.6667 400.5 36.3333 396.5 34.5C392.5 32.6667 388.333 31.8333 384 32ZM320 64H192L191.5 71.75L293.25 148L341.5 111.75C334.5 105.75 329.167 98.5833 325.5 90.25C321.833 81.9167 320 73.1667 320 64ZM128 32C123.5 32 119.333 32.8333 115.5 34.5C111.667 36.1667 108.333 38.4167 105.5 41.25C102.667 44.0833 100.333 47.5 98.5 51.5C96.6667 55.5 95.8333 59.6667 96 64C96 68.5 96.8333 72.6667 98.5 76.5C100.167 80.3333 102.417 83.6667 105.25 86.5C108.083 89.3333 111.5 91.6667 115.5 93.5C119.5 95.3333 123.667 96.1667 128 96C132.5 96 136.667 95.1667 140.5 93.5C144.333 91.8333 147.667 89.5833 150.5 86.75C153.333 83.9167 155.667 80.5 157.5 76.5C159.333 72.5 160.167 68.3333 160 64C160 59.5 159.167 55.3333 157.5 51.5C155.833 47.6667 153.583 44.3333 150.75 41.5C147.917 38.6667 144.5 36.3333 140.5 34.5C136.5 32.6667 132.333 31.8333 128 32ZM32 320C32 324.5 32.8333 328.667 34.5 332.5C36.1667 336.333 38.4167 339.667 41.25 342.5C44.0833 345.333 47.5 347.667 51.5 349.5C55.5 351.333 59.6667 352.167 64 352C68.5 352 72.6667 351.167 76.5 349.5C80.3333 347.833 83.6667 345.583 86.5 342.75C89.3333 339.917 91.6667 336.5 93.5 332.5C95.3333 328.5 96.1667 324.333 96 320C96 315.5 95.1667 311.333 93.5 307.5C91.8333 303.667 89.5833 300.333 86.75 297.5C83.9167 294.667 80.5 292.333 76.5 290.5C72.5 288.667 68.3333 287.833 64 288C59.5 288 55.3333 288.833 51.5 290.5C47.6667 292.167 44.3333 294.417 41.5 297.25C38.6667 300.083 36.3333 303.5 34.5 307.5C32.6667 311.5 31.8333 315.667 32 320ZM256 480C260.5 480 264.667 479.167 268.5 477.5C272.333 475.833 275.667 473.583 278.5 470.75C281.333 467.917 283.667 464.5 285.5 460.5C287.333 456.5 288.167 452.333 288 448C288 443.5 287.167 439.333 285.5 435.5C283.833 431.667 281.583 428.333 278.75 425.5C275.917 422.667 272.5 420.333 268.5 418.5C264.5 416.667 260.333 415.833 256 416C251.5 416 247.333 416.833 243.5 418.5C239.667 420.167 236.333 422.417 233.5 425.25C230.667 428.083 228.333 431.5 226.5 435.5C224.667 439.5 223.833 443.667 224 448C224 452.5 224.833 456.667 226.5 460.5C228.167 464.333 230.417 467.667 233.25 470.5C236.083 473.333 239.5 475.667 243.5 477.5C247.5 479.333 251.667 480.167 256 480ZM256 384C266.5 384 276.417 386.417 285.75 391.25C295.083 396.083 302.75 402.917 308.75 411.75L402.5 365C400.667 363 398.917 360.917 397.25 358.75C395.583 356.583 394 354.333 392.5 352H119.5C118.167 354.333 116.667 356.583 115 358.75C113.333 360.917 111.5 363 109.5 365L203.25 411.75C209.083 403.083 216.667 396.333 226 391.5C235.333 386.667 245.333 384.167 256 384ZM448 352C452.5 352 456.667 351.167 460.5 349.5C464.333 347.833 467.667 345.583 470.5 342.75C473.333 339.917 475.667 336.5 477.5 332.5C479.333 328.5 480.167 324.333 480 320C480 314.5 478.667 309.333 476 304.5C473.333 299.667 469.667 295.833 465 293L464.75 293.25L464.5 293L464.75 292.75C459.417 289.583 453.833 288 448 288C443.5 288 439.333 288.833 435.5 290.5C431.667 292.167 428.333 294.417 425.5 297.25C422.667 300.083 420.333 303.5 418.5 307.5C416.667 311.5 415.833 315.667 416 320C416 324.5 416.833 328.667 418.5 332.5C420.167 336.333 422.417 339.667 425.25 342.5C428.083 345.333 431.5 347.667 435.5 349.5C439.5 351.333 443.667 352.167 448 352Z" fill="#FBC02D"/>
</g>
<defs>
<clipPath id="clip0_77_85">
<rect width="512" height="512" fill="white"/>
</clipPath>
</defs>
</svg>
