<svg width="512" height="512" viewBox="0 0 512 512" fill="none" xmlns="http://www.w3.org/2000/svg">
<path d="M256 64C230.786 64 205.819 68.9662 182.525 78.6151C159.23 88.264 138.064 102.407 120.235 120.235C102.407 138.064 88.264 159.23 78.6151 182.525C68.9662 205.819 64 230.786 64 256C64 281.214 68.9662 306.181 78.6151 329.475C88.264 352.77 102.407 373.936 120.235 391.764C138.064 409.593 159.23 423.736 182.525 433.385C205.819 443.034 230.786 448 256 448C306.922 448 355.757 427.771 391.764 391.764C427.771 355.757 448 306.922 448 256C448 205.078 427.771 156.242 391.764 120.235C355.757 84.2285 306.922 64 256 64ZM21.3333 256C21.3333 126.4 126.4 21.3333 256 21.3333C385.6 21.3333 490.667 126.4 490.667 256C490.667 385.6 385.6 490.667 256 490.667C126.4 490.667 21.3333 385.6 21.3333 256ZM277.333 92.4373V117.76C306.71 122.304 333.876 136.085 354.896 157.104C375.915 178.124 389.696 205.29 394.24 234.667H419.563V277.333H394.24C389.696 306.71 375.915 333.876 354.896 354.896C333.876 375.915 306.71 389.696 277.333 394.24V419.563H234.667V394.24C205.29 389.696 178.124 375.915 157.104 354.896C136.085 333.876 122.304 306.71 117.76 277.333H92.4373V234.667H117.76C122.304 205.29 136.085 178.124 157.104 157.104C178.124 136.085 205.29 122.304 234.667 117.76V92.4373H277.333ZM256 158.805C243.236 158.805 230.597 161.319 218.805 166.204C207.013 171.088 196.298 178.248 187.273 187.273C178.248 196.298 171.088 207.013 166.204 218.805C161.319 230.597 158.805 243.236 158.805 256C158.805 268.764 161.319 281.403 166.204 293.195C171.088 304.987 178.248 315.702 187.273 324.727C196.298 333.752 207.013 340.912 218.805 345.796C230.597 350.681 243.236 353.195 256 353.195C281.778 353.195 306.499 342.955 324.727 324.727C342.955 306.499 353.195 281.778 353.195 256C353.195 230.222 342.955 205.501 324.727 187.273C306.499 169.045 281.778 158.805 256 158.805ZM256 253.632C255.689 253.632 255.381 253.693 255.094 253.812C254.806 253.931 254.545 254.106 254.326 254.326C254.106 254.545 253.931 254.806 253.812 255.094C253.693 255.381 253.632 255.689 253.632 256C253.632 256.311 253.693 256.619 253.812 256.906C253.931 257.193 254.106 257.455 254.326 257.674C254.545 257.894 254.806 258.069 255.094 258.188C255.381 258.307 255.689 258.368 256 258.368C256.628 258.368 257.23 258.119 257.674 257.674C258.119 257.23 258.368 256.628 258.368 256C258.368 255.372 258.119 254.77 257.674 254.326C257.23 253.881 256.628 253.632 256 253.632ZM210.965 256C210.965 244.056 215.71 232.601 224.156 224.156C232.601 215.71 244.056 210.965 256 210.965C267.944 210.965 279.399 215.71 287.844 224.156C296.29 232.601 301.035 244.056 301.035 256C301.035 267.944 296.29 279.399 287.844 287.844C279.399 296.29 267.944 301.035 256 301.035C244.056 301.035 232.601 296.29 224.156 287.844C215.71 279.399 210.965 267.944 210.965 256Z" fill="#FBC02D"/>
</svg>
