<svg width="512" height="512" viewBox="0 0 512 512" fill="none" xmlns="http://www.w3.org/2000/svg">
<path d="M336 448C353.673 448 368 433.673 368 416C368 398.327 353.673 384 336 384C318.327 384 304 398.327 304 416C304 433.673 318.327 448 336 448Z" fill="black"/>
<path d="M336 128C353.673 128 368 113.673 368 96C368 78.3269 353.673 64 336 64C318.327 64 304 78.3269 304 96C304 113.673 318.327 128 336 128Z" fill="black"/>
<path d="M64 288C81.6731 288 96 273.673 96 256C96 238.327 81.6731 224 64 224C46.3269 224 32 238.327 32 256C32 273.673 46.3269 288 64 288Z" fill="black"/>
<path d="M448 192C433.85 192.042 420.113 196.777 408.943 205.464C397.772 214.15 389.799 226.296 386.272 240H317.728C315.462 230.977 311.24 222.562 305.36 215.353C299.48 208.143 292.087 202.314 283.704 198.279C275.322 194.244 266.154 192.102 256.851 192.004C247.549 191.906 238.338 193.855 229.872 197.712L179.04 134.192C187.401 123.211 191.952 109.802 192 96C192 83.342 188.246 70.9683 181.214 60.4435C174.182 49.9188 164.186 41.7157 152.492 36.8717C140.797 32.0277 127.929 30.7603 115.514 33.2298C103.099 35.6992 91.6958 41.7946 82.7452 50.7452C73.7946 59.6958 67.6992 71.0995 65.2298 83.5142C62.7603 95.929 64.0277 108.797 68.8717 120.492C73.7157 132.186 81.9188 142.182 92.4435 149.214C102.968 156.246 115.342 160 128 160C137.022 159.979 145.935 158.032 154.144 154.288L204.96 217.808C196.56 228.768 192.008 242.191 192.008 256C192.008 269.809 196.56 283.232 204.96 294.192L154.144 357.712C145.935 353.968 137.022 352.021 128 352C115.342 352 102.968 355.754 92.4435 362.786C81.9188 369.818 73.7157 379.814 68.8717 391.508C64.0277 403.203 62.7603 416.071 65.2298 428.486C67.6992 440.901 73.7946 452.304 82.7452 461.255C91.6958 470.205 103.099 476.301 115.514 478.77C127.929 481.24 140.797 479.972 152.492 475.128C164.186 470.284 174.182 462.081 181.214 451.557C188.246 441.032 192 428.658 192 416C191.953 402.198 187.403 388.788 179.04 377.808L229.856 314.288C238.323 318.148 247.535 320.099 256.84 320.003C266.144 319.906 275.314 317.765 283.699 313.73C292.084 309.694 299.478 303.865 305.359 296.653C311.24 289.442 315.462 281.025 317.728 272H386.272C389.285 283.561 395.479 294.045 404.151 302.263C412.824 310.48 423.626 316.102 435.332 318.488C447.039 320.875 459.18 319.931 470.377 315.765C481.574 311.598 491.378 304.375 498.676 294.916C505.975 285.458 510.474 274.142 511.665 262.254C512.856 250.367 510.689 238.384 505.411 227.665C500.134 216.947 491.956 207.924 481.808 201.619C471.66 195.315 459.947 191.982 448 192ZM96 96C96 89.671 97.8768 83.4842 101.393 78.2218C104.909 72.9594 109.907 68.8579 115.754 66.4359C121.601 64.0139 128.036 63.3802 134.243 64.6149C140.45 65.8496 146.152 68.8973 150.627 73.3726C155.103 77.8479 158.15 83.5497 159.385 89.7571C160.62 95.9645 159.986 102.399 157.564 108.246C155.142 114.093 151.041 119.091 145.778 122.607C140.516 126.123 134.329 128 128 128C119.516 127.992 111.381 124.617 105.382 118.618C99.3826 112.619 96.0085 104.484 96 96ZM128 448C121.671 448 115.484 446.123 110.222 442.607C104.959 439.091 100.858 434.093 98.4359 428.246C96.0139 422.399 95.3802 415.965 96.6149 409.757C97.8496 403.55 100.897 397.848 105.373 393.373C109.848 388.897 115.55 385.85 121.757 384.615C127.965 383.38 134.399 384.014 140.246 386.436C146.093 388.858 151.091 392.959 154.607 398.222C158.123 403.484 160 409.671 160 416C159.992 424.484 156.617 432.619 150.618 438.618C144.619 444.617 136.484 447.992 128 448ZM256 288C249.671 288 243.484 286.123 238.222 282.607C232.959 279.091 228.858 274.093 226.436 268.246C224.014 262.399 223.38 255.965 224.615 249.757C225.85 243.55 228.897 237.848 233.373 233.373C237.848 228.897 243.55 225.85 249.757 224.615C255.965 223.38 262.399 224.014 268.246 226.436C274.093 228.858 279.091 232.959 282.607 238.222C286.123 243.484 288 249.671 288 256C287.992 264.484 284.617 272.619 278.618 278.618C272.619 284.617 264.484 287.992 256 288ZM448 288C441.671 288 435.484 286.123 430.222 282.607C424.959 279.091 420.858 274.093 418.436 268.246C416.014 262.399 415.38 255.965 416.615 249.757C417.85 243.55 420.897 237.848 425.373 233.373C429.848 228.897 435.55 225.85 441.757 224.615C447.965 223.38 454.399 224.014 460.246 226.436C466.093 228.858 471.091 232.959 474.607 238.222C478.123 243.484 480 249.671 480 256C479.992 264.484 476.617 272.619 470.618 278.618C464.619 284.617 456.484 287.992 448 288Z" fill="black"/>
</svg>
