<svg width="512" height="512" viewBox="0 0 512 512" fill="none" xmlns="http://www.w3.org/2000/svg">
<path d="M127.798 143.136C198.963 155.697 241.374 181.981 256 197.078C270.626 181.981 313.037 155.697 384.226 143.136C420.27 136.76 438.304 133.584 453.64 145.79C469 157.972 469 177.786 469 217.413V359.78C469 396.018 469 414.125 459.155 425.43C449.286 436.735 427.607 440.575 384.226 448.23C345.531 455.056 315.356 465.934 293.512 476.86C271.999 487.62 261.254 493 256 493M256 493C250.746 493 239.978 487.62 218.488 476.884C196.644 465.934 166.469 455.056 127.798 448.206C84.393 440.575 62.7143 436.735 52.8453 425.43C42.9763 414.125 43 396.018 43 359.78V217.413C43 177.786 43 157.972 58.3597 145.79C73.6957 133.584 91.7297 136.784 127.774 143.136M256 493V184.896M173.167 44.092C197.697 27.6913 226.541 18.958 256.036 19.0002C285.531 19.0423 314.349 27.8582 338.833 44.329M294.387 101.944C282.824 94.9099 269.563 91.17 256.033 91.1283C242.503 91.0865 229.219 94.7444 217.613 101.707" stroke="#FBC02D" stroke-width="32" stroke-linecap="round" stroke-linejoin="round"/>
</svg>
