<svg width="512" height="512" viewBox="0 0 512 512" fill="none" xmlns="http://www.w3.org/2000/svg">
<path d="M448 176C448 185.667 446.417 194.833 443.25 203.5C440.083 212.167 435.5 220 429.5 227C423.5 234 416.583 239.917 408.75 244.75C400.917 249.583 392.167 252.833 382.5 254.5C380.667 264 377.417 272.75 372.75 280.75C368.083 288.75 362.167 295.667 355 301.5C347.833 307.333 340 311.833 331.5 315C323 318.167 313.833 319.833 304 320H208C202.667 320 197.583 320.833 192.75 322.5C187.917 324.167 183.5 326.5 179.5 329.5C175.5 332.5 172 336.083 169 340.25C166 344.417 163.75 349.083 162.25 354.25C171.25 356.417 179.5 359.917 187 364.75C194.5 369.583 201 375.5 206.5 382.5C212 389.5 216.25 397.167 219.25 405.5C222.25 413.833 223.833 422.667 224 432C224 443 221.917 453.333 217.75 463C213.583 472.667 207.833 481.167 200.5 488.5C193.167 495.833 184.667 501.583 175 505.75C165.333 509.917 155 512 144 512C133 512 122.667 509.917 113 505.75C103.333 501.583 94.8333 495.917 87.5 488.75C80.1667 481.583 74.4167 473.083 70.25 463.25C66.0833 453.417 64 443 64 432C64 422.5 65.5833 413.417 68.75 404.75C71.9167 396.083 76.3333 388.333 82 381.5C87.6667 374.667 94.4167 368.75 102.25 363.75C110.083 358.75 118.667 355.417 128 353.75V158.25C118.667 156.417 110.083 153.083 102.25 148.25C94.4167 143.417 87.6667 137.583 82 130.75C76.3333 123.917 71.9167 116.083 68.75 107.25C65.5833 98.4167 64 89.3333 64 80C64 69 66.0833 58.6667 70.25 49C74.4167 39.3333 80.0833 30.9167 87.25 23.75C94.4167 16.5833 102.917 10.8333 112.75 6.5C122.583 2.16667 133 0 144 0C155 0 165.333 2.08333 175 6.25C184.667 10.4167 193.083 16.1667 200.25 23.5C207.417 30.8333 213.167 39.3333 217.5 49C221.833 58.6667 224 69 224 80C224 89.5 222.417 98.5833 219.25 107.25C216.083 115.917 211.667 123.667 206 130.5C200.333 137.333 193.583 143.25 185.75 148.25C177.917 153.25 169.333 156.583 160 158.25V304.5C167 299.167 174.583 295.083 182.75 292.25C190.917 289.417 199.333 288 208 288H304C309.333 288 314.417 287.167 319.25 285.5C324.083 283.833 328.5 281.5 332.5 278.5C336.5 275.5 340 271.917 343 267.75C346 263.583 348.25 258.917 349.75 253.75C340.75 251.583 332.5 248.083 325 243.25C317.5 238.417 311 232.583 305.5 225.75C300 218.917 295.75 211.25 292.75 202.75C289.75 194.25 288.167 185.333 288 176C288 165 290.083 154.667 294.25 145C298.417 135.333 304.083 126.917 311.25 119.75C318.417 112.583 326.917 106.833 336.75 102.5C346.583 98.1667 357 96 368 96C379 96 389.333 98.0833 399 102.25C408.667 106.417 417.083 112.167 424.25 119.5C431.417 126.833 437.167 135.333 441.5 145C445.833 154.667 448 165 448 176ZM96 80C96 86.6667 97.25 92.9167 99.75 98.75C102.25 104.583 105.667 109.667 110 114C114.333 118.333 119.417 121.75 125.25 124.25C131.083 126.75 137.333 128 144 128C150.667 128 156.917 126.75 162.75 124.25C168.583 121.75 173.667 118.333 178 114C182.333 109.667 185.75 104.583 188.25 98.75C190.75 92.9167 192 86.6667 192 80C192 73.3333 190.75 67.0833 188.25 61.25C185.75 55.4167 182.333 50.3333 178 46C173.667 41.6667 168.583 38.25 162.75 35.75C156.917 33.25 150.667 32 144 32C137.333 32 131.083 33.25 125.25 35.75C119.417 38.25 114.333 41.6667 110 46C105.667 50.3333 102.25 55.4167 99.75 61.25C97.25 67.0833 96 73.3333 96 80ZM192 432C192 425.333 190.75 419.083 188.25 413.25C185.75 407.417 182.333 402.333 178 398C173.667 393.667 168.583 390.25 162.75 387.75C156.917 385.25 150.667 384 144 384C137.333 384 131.083 385.25 125.25 387.75C119.417 390.25 114.333 393.667 110 398C105.667 402.333 102.25 407.417 99.75 413.25C97.25 419.083 96 425.333 96 432C96 438.667 97.25 444.917 99.75 450.75C102.25 456.583 105.667 461.667 110 466C114.333 470.333 119.417 473.75 125.25 476.25C131.083 478.75 137.333 480 144 480C150.667 480 156.917 478.75 162.75 476.25C168.583 473.75 173.667 470.333 178 466C182.333 461.667 185.75 456.583 188.25 450.75C190.75 444.917 192 438.667 192 432ZM368 224C374.667 224 380.917 222.75 386.75 220.25C392.583 217.75 397.667 214.333 402 210C406.333 205.667 409.75 200.583 412.25 194.75C414.75 188.917 416 182.667 416 176C416 169.333 414.75 163.083 412.25 157.25C409.75 151.417 406.333 146.333 402 142C397.667 137.667 392.583 134.25 386.75 131.75C380.917 129.25 374.667 128 368 128C361.333 128 355.083 129.25 349.25 131.75C343.417 134.25 338.333 137.667 334 142C329.667 146.333 326.25 151.417 323.75 157.25C321.25 163.083 320 169.333 320 176C320 182.667 321.25 188.917 323.75 194.75C326.25 200.583 329.667 205.667 334 210C338.333 214.333 343.417 217.75 349.25 220.25C355.083 222.75 361.333 224 368 224Z" fill="#FBC02D"/>
</svg>
