<svg width="512" height="512" viewBox="0 0 512 512" fill="none" xmlns="http://www.w3.org/2000/svg">
<path d="M149.333 469.333V264.491C149.333 241.707 149.333 230.315 154.56 220.757C159.765 211.2 169.344 205.035 188.523 192.704L232.939 164.16C244.139 156.971 249.728 153.365 256 153.365C262.272 153.365 267.861 156.971 279.083 164.16L323.477 192.704C342.656 205.035 352.235 211.2 357.44 220.757C362.667 230.315 362.667 241.707 362.667 264.491V469.333M256 277.333H256.192M448 469.333V344.789C448 295.915 421.12 291.947 362.667 277.333M64 469.333V344.789C64 295.915 90.88 291.947 149.333 277.333M42.6666 469.333H469.333M256 469.333V384M256 149.333V106.283M256 106.283V63.36C256 53.248 256 48.192 259.115 45.056C268.928 35.1787 309.333 58.5173 324.693 67.9893C337.664 75.968 341.333 91.9253 341.333 106.283H256Z" stroke="#FBC02D" stroke-width="32" stroke-linecap="round" stroke-linejoin="round"/>
</svg>
