<svg width="512" height="512" viewBox="0 0 512 512" fill="none" xmlns="http://www.w3.org/2000/svg">
<g clip-path="url(#clip0_77_83)">
<path d="M330.24 366.592C289.093 398.555 237.311 413.635 185.437 408.759C133.563 403.883 85.4971 379.42 51.027 340.349C16.5569 301.278 -1.72583 250.538 -0.0985051 198.461C1.52882 146.384 22.9438 96.8844 59.7861 60.0421C96.6284 23.1999 146.128 1.78484 198.205 0.157507C250.282 -1.46982 301.022 16.8129 340.093 51.283C379.164 85.7531 403.627 133.819 408.503 185.693C413.379 237.567 398.3 289.349 366.336 330.496L503.296 466.944L466.944 503.296L330.496 366.592H330.24ZM204.8 358.4C224.971 358.4 244.945 354.427 263.58 346.708C282.216 338.989 299.149 327.675 313.412 313.412C327.675 299.149 338.989 282.216 346.708 263.58C354.427 244.945 358.4 224.971 358.4 204.8C358.4 184.629 354.427 164.655 346.708 146.02C338.989 127.384 327.675 110.451 313.412 96.1884C299.149 81.9253 282.216 70.6112 263.58 62.8921C244.945 55.173 224.971 51.2 204.8 51.2C164.063 51.2 124.994 67.3828 96.1884 96.1884C67.3828 124.994 51.2 164.063 51.2 204.8C51.2 245.537 67.3828 284.606 96.1884 313.412C124.994 342.217 164.063 358.4 204.8 358.4Z" fill="#FBC02D"/>
</g>
<defs>
<clipPath id="clip0_77_83">
<rect width="512" height="512" fill="white"/>
</clipPath>
</defs>
</svg>
