<svg width="512" height="512" viewBox="0 0 512 512" fill="none" xmlns="http://www.w3.org/2000/svg">
<g clip-path="url(#clip0_77_76)">
<path d="M96.0074 320C77.0213 320 58.4615 325.63 42.6751 336.179C26.8887 346.728 14.5848 361.721 7.31909 379.262C0.0534122 396.804 -1.84762 416.106 1.85639 434.729C5.5604 453.351 14.7031 470.456 28.1283 483.882C41.5535 497.308 58.6583 506.451 77.2796 510.155C95.9009 513.86 115.202 511.958 132.743 504.692C150.284 497.426 165.277 485.122 175.825 469.335C186.373 453.548 192.003 434.987 192.003 416C192.003 390.539 181.889 366.121 163.887 348.118C145.884 330.114 121.467 320 96.0074 320ZM96.0074 469.333C85.4596 469.333 75.1486 466.205 66.3784 460.345C57.6082 454.485 50.7726 446.155 46.7361 436.41C42.6996 426.664 41.6435 415.941 43.7013 405.595C45.7591 395.249 50.8383 385.746 58.2968 378.288C65.7553 370.829 75.2579 365.749 85.6031 363.691C95.9482 361.634 106.671 362.69 116.416 366.726C126.161 370.763 134.49 377.599 140.35 386.37C146.21 395.14 149.338 405.452 149.338 416C149.338 430.145 143.719 443.71 133.718 453.712C123.717 463.714 110.152 469.333 96.0074 469.333ZM6.25157 198.24L44.5165 160L6.25157 121.76C2.24876 117.757 -8.4353e-08 112.328 0 106.667C8.4353e-08 101.006 2.24876 95.5763 6.25157 91.5733C10.2544 87.5703 15.6834 85.3215 21.3442 85.3215C27.005 85.3215 32.434 87.5703 36.4368 91.5733L74.6751 129.84L112.913 91.5733C116.916 87.5703 122.345 85.3215 128.006 85.3215C133.667 85.3215 139.096 87.5703 143.099 91.5733C147.101 95.5763 149.35 101.006 149.35 106.667C149.35 112.328 147.101 117.757 143.099 121.76L104.834 160L143.099 198.24C147.101 202.243 149.35 207.672 149.35 213.333C149.35 218.994 147.101 224.424 143.099 228.427C139.096 232.43 133.667 234.679 128.006 234.679C122.345 234.679 116.916 232.43 112.913 228.427L74.6751 190.16L36.4368 228.427C32.434 232.43 27.005 234.679 21.3442 234.679C15.6834 234.679 10.2544 232.43 6.25157 228.427C2.24876 224.424 8.4353e-08 218.994 0 213.333C-8.4353e-08 207.672 2.24876 202.243 6.25157 198.24ZM505.748 454.24C507.73 456.222 509.303 458.575 510.375 461.165C511.448 463.755 512 466.53 512 469.333C512 472.136 511.448 474.912 510.375 477.502C509.303 480.091 507.73 482.445 505.748 484.427C503.766 486.409 501.413 487.981 498.824 489.054C496.234 490.126 493.459 490.679 490.656 490.679C487.853 490.679 485.077 490.126 482.488 489.054C479.898 487.981 477.545 486.409 475.563 484.427L437.325 446.16L399.087 484.427C395.084 488.43 389.655 490.679 383.994 490.679C378.333 490.679 372.904 488.43 368.901 484.427C364.899 480.424 362.65 474.994 362.65 469.333C362.65 463.672 364.899 458.243 368.901 454.24L407.166 416L368.901 377.76C364.899 373.757 362.65 368.328 362.65 362.667C362.65 357.006 364.899 351.576 368.901 347.573C372.904 343.57 378.333 341.321 383.994 341.321C389.655 341.321 395.084 343.57 399.087 347.573L437.325 385.84L475.563 347.573C479.566 343.57 484.995 341.321 490.656 341.321C496.317 341.321 501.746 343.57 505.748 347.573C509.751 351.576 512 357.006 512 362.667C512 368.328 509.751 373.757 505.748 377.76L467.484 416L505.748 454.24ZM385.247 215.547C368.768 275.093 317.73 326.56 261.173 340.693C259.429 341.127 257.637 341.342 255.84 341.333C250.638 341.324 245.619 339.414 241.727 335.962C237.835 332.511 235.338 327.757 234.705 322.593C234.073 317.43 235.349 312.213 238.293 307.925C241.238 303.636 245.648 300.571 250.694 299.307C292.372 288.88 331.623 248.88 344.023 204.16C352.529 173.493 352.609 126.827 304.798 79.0933L298.665 72.8267V128C298.665 133.658 296.417 139.084 292.417 143.085C288.416 147.086 282.99 149.333 277.332 149.333C271.675 149.333 266.249 147.086 262.248 143.085C258.247 139.084 256 133.658 256 128V21.3333C256 15.6754 258.247 10.2492 262.248 6.24839C266.249 2.24762 271.675 0 277.332 0H383.994C389.652 0 395.078 2.24762 399.078 6.24839C403.079 10.2492 405.326 15.6754 405.326 21.3333C405.326 26.9913 403.079 32.4175 399.078 36.4183C395.078 40.419 389.652 42.6667 383.994 42.6667H328.823L335.09 48.9067C383.727 97.5733 401.54 156.747 385.247 215.547Z" fill="#FBC02D"/>
</g>
<defs>
<clipPath id="clip0_77_76">
<rect width="512" height="512" fill="white"/>
</clipPath>
</defs>
</svg>
